<?xml version="1.0" standalone="no"?><svg xmlns="http://www.w3.org/2000/svg" viewBox="0 0 1440 320"><path fill="#0099ff" fill-opacity="1" d="M0,128L6.2,122.7C12.3,117,25,107,37,90.7C49.2,75,62,53,74,48C86.2,43,98,53,111,69.3C123.1,85,135,107,148,128C160,149,172,171,185,186.7C196.9,203,209,213,222,229.3C233.8,245,246,267,258,272C270.8,277,283,267,295,224C307.7,181,320,107,332,96C344.6,85,357,139,369,154.7C381.5,171,394,149,406,122.7C418.5,96,431,64,443,48C455.4,32,468,32,480,32C492.3,32,505,32,517,58.7C529.2,85,542,139,554,181.3C566.2,224,578,256,591,240C603.1,224,615,160,628,128C640,96,652,96,665,106.7C676.9,117,689,139,702,144C713.8,149,726,139,738,165.3C750.8,192,763,256,775,277.3C787.7,299,800,277,812,234.7C824.6,192,837,128,849,133.3C861.5,139,874,213,886,245.3C898.5,277,911,267,923,261.3C935.4,256,948,256,960,240C972.3,224,985,192,997,186.7C1009.2,181,1022,203,1034,192C1046.2,181,1058,139,1071,149.3C1083.1,160,1095,224,1108,213.3C1120,203,1132,117,1145,117.3C1156.9,117,1169,203,1182,208C1193.8,213,1206,139,1218,96C1230.8,53,1243,43,1255,58.7C1267.7,75,1280,117,1292,112C1304.6,107,1317,53,1329,58.7C1341.5,64,1354,128,1366,165.3C1378.5,203,1391,213,1403,186.7C1415.4,160,1428,96,1434,64L1440,32L1440,0L1433.8,0C1427.7,0,1415,0,1403,0C1390.8,0,1378,0,1366,0C1353.8,0,1342,0,1329,0C1316.9,0,1305,0,1292,0C1280,0,1268,0,1255,0C1243.1,0,1231,0,1218,0C1206.2,0,1194,0,1182,0C1169.2,0,1157,0,1145,0C1132.3,0,1120,0,1108,0C1095.4,0,1083,0,1071,0C1058.5,0,1046,0,1034,0C1021.5,0,1009,0,997,0C984.6,0,972,0,960,0C947.7,0,935,0,923,0C910.8,0,898,0,886,0C873.8,0,862,0,849,0C836.9,0,825,0,812,0C800,0,788,0,775,0C763.1,0,751,0,738,0C726.2,0,714,0,702,0C689.2,0,677,0,665,0C652.3,0,640,0,628,0C615.4,0,603,0,591,0C578.5,0,566,0,554,0C541.5,0,529,0,517,0C504.6,0,492,0,480,0C467.7,0,455,0,443,0C430.8,0,418,0,406,0C393.8,0,382,0,369,0C356.9,0,345,0,332,0C320,0,308,0,295,0C283.1,0,271,0,258,0C246.2,0,234,0,222,0C209.2,0,197,0,185,0C172.3,0,160,0,148,0C135.4,0,123,0,111,0C98.5,0,86,0,74,0C61.5,0,49,0,37,0C24.6,0,12,0,6,0L0,0Z"></path></svg>